<?xml version="1.0" encoding="UTF-8"?>
<svg version="1.1" xmlns="http://www.w3.org/2000/svg" x="0px" y="0px" viewBox="0 0 220 220">
<path style="fill:#FFFFFF;" d="M-0.001,110.576V0h110.576v109.826v0.75H-0.001L-0.001,110.576z M109.825,109.826v-0.75V109.826L109.825,109.826z M1.499,109.076h107.574V1.502H1.499V109.076L1.499,109.076z"/>
<path style="fill:#FFFFFF;" d="M17.438,25.684H45.97c9.963,0,17.965,5.023,17.965,15.074c0,6.643-3.658,10.984-10.303,12.26v0.172c8.346,0.852,13.027,7.75,13.027,14.988c0,15.158-10.813,18.141-23.416,18.141H17.438V25.684z M28.851,50.041h13.541c5.023,0,9.625-1.961,9.625-7.752c0-4.6-2.984-7.578-9.625-7.578H28.851V50.041z M28.851,76.271h14.818c6.898,0,11.07-2.133,11.07-8.434c0-6.814-4.258-9.283-11.156-9.283H28.851V76.271z"/>
<path style="fill:#FFFFFF;" d="M73.808,43.227H84.2v5.959h0.17c2.471-4.938,7.238-6.98,13.285-6.98v10.561c-7.07,0-13.455,3.32-13.455,12.686v20.867H73.808V43.227z"/>
<path style="fill:#FFFFFF;" d="M86.274,15.782h0.893c0.912,0,1.623-0.42,1.623-1.387c0-1.039-0.602-1.676-1.641-1.676c-1.258,0-1.66,1.094-1.75,2.133l-2.426-0.512c0.4-2.406,1.932-3.664,4.357-3.664c2.023,0,3.902,1.076,3.902,3.318c0,1.441-0.693,2.262-2.043,2.607v0.037c1.551,0.363,2.334,1.477,2.354,3.063c0,2.572-2.115,3.811-4.486,3.811c-2.426,0-4.303-1.129-4.303-4.266h2.334c0,1.33,0.674,2.225,2.041,2.225c1.168,0,1.861-0.785,1.861-1.914c0-1.387-0.875-1.842-1.824-1.842h-0.893V15.782z"/>
<path style="fill:#FFFFFF;" d="M94.118,10.895h6.928l-0.236,2.152h-4.795l-0.383,2.588c0.637-0.564,1.404-0.875,2.225-0.875c2.643,0,3.902,1.951,3.902,4.248c0,2.846-1.988,4.504-4.613,4.504c-2.316,0-4.213-1.148-4.322-3.646l2.553-0.199c0.018,1.039,0.693,1.914,1.787,1.914c1.494,0,2.043-1.258,2.043-2.553c0-1.641-0.84-2.334-2.08-2.334c-0.912,0-1.422,0.4-1.768,1.186l-2.115-0.164L94.118,10.895z"/>
<path style="fill:#FFFFFF;" d="M109.087,219.595V109.021h110.58v109.825v0.748H109.087L109.087,219.595z M218.917,218.847v-0.75V218.847L218.917,218.847z M110.587,218.097h107.58l-0.002-107.575H110.587V218.097L110.587,218.097z"/>
<path style="fill:#FFFFFF;" d="M118.001,134.705h28.525c9.965,0,17.969,5.025,17.969,15.073c0,6.642-3.662,10.98-10.307,12.26v0.171c8.348,0.85,13.031,7.747,13.031,14.983c0,15.16-10.814,18.145-23.42,18.145h-25.799V134.705z M129.411,159.059h13.539c5.021,0,9.623-1.959,9.623-7.747c0-4.598-2.982-7.581-9.623-7.581h-13.539V159.059z M129.411,185.286h14.813c6.9,0,11.076-2.129,11.076-8.432c0-6.811-4.26-9.279-11.158-9.279h-14.73V185.286z"/>
<path style="fill:#FFFFFF;" d="M210.392,188.097c0,4.428,1.021,6.303,1.615,7.24h-10.984c-0.678-1.023-1.02-2.813-1.02-3.92c-4.002,3.236-8.689,4.938-14.055,4.938c-8.174,0-14.646-5.193-14.646-13.535c0-8.434,6.727-12.184,13.115-13.461l4.342-0.848c3.748-0.766,8.604-1.619,11.244-2.555v-1.277c0-4.258-3.662-5.449-8.178-5.449c-6.045,0-8.006,1.787-8.006,6.473l-10.389-0.428c0-10.132,8.941-14.045,18.395-14.045c9.287,0,18.566,1.873,18.566,14.131V188.097z M200.003,173.79c-1.359,0.682-3.066,1.193-4.941,1.531l-5.707,1.195c-3.916,0.766-7.15,1.871-7.15,5.959c0,3.238,2.977,5.367,6.727,5.367c4.854,0,11.072-2.385,11.072-7.918V173.79z"/>
<path style="fill:#FFFFFF;" d="M192.704,119.196h6.93l-0.238,2.151h-4.795l-0.383,2.59c0.639-0.566,1.404-0.876,2.225-0.876c2.645,0,3.902,1.951,3.902,4.25c0,2.843-1.988,4.503-4.613,4.503c-2.316,0-4.213-1.15-4.322-3.647l2.553-0.2c0.018,1.039,0.693,1.914,1.787,1.914c1.496,0,2.043-1.257,2.043-2.553c0-1.641-0.84-2.334-2.08-2.334c-0.91,0-1.422,0.401-1.768,1.186l-2.115-0.163L192.704,119.196z"/>
<path style="fill:#FFFFFF;" d="M207.823,122.442c-0.072-0.875-0.637-1.422-1.477-1.422c-1.77,0-2.17,2.313-2.17,3.772h0.037c0.309-0.455,1.021-1.147,2.424-1.147c2.316,0,3.666,1.659,3.666,4.084c0,2.299-1.678,4.085-4.139,4.085c-3.611,0-4.432-3.228-4.432-6.109c0-3.92,1.531-6.729,4.631-6.729c2.08,0,3.465,1.077,3.813,3.154L207.823,122.442z M204.358,127.729c0,1.276,0.639,2.042,1.807,2.042c1.166,0,1.805-0.766,1.805-2.042s-0.639-2.042-1.805-2.042C204.997,125.688,204.358,126.453,204.358,127.729z"/>
</svg>
